<svg id="Layer_1" data-name="Layer 1" xmlns="http://www.w3.org/2000/svg" viewBox="0 0 60.82 79.96"><defs><style>.cls-1{fill:#fff;}</style></defs><title>pen-white</title><path class="cls-1" d="M63.74,11.72a5.47,5.47,0,0,0-4.75,0,4.46,4.46,0,0,1,2,.54c3.61,2,3.6,8.94,0,15.46l-2,3.59c-1.27,2.28-3.19,4.73-4.06,7.17a12,12,0,0,0-.69,3.27c.46,2,4.4-5.33,4.68-5.83l4.86-8.71C67.33,20.65,67.35,13.73,63.74,11.72Z" transform="translate(-19.97 -10.4)"/><path class="cls-1" d="M76.84,90.36A3.2,3.2,0,0,1,75.33,90c-1.47-.76-1.81-2.49-2.14-4.17-.3-1.51-.58-2.94-1.58-3.46-1.5-.77-4.55-.28-6.37,0l-.2,0a41,41,0,0,0-5.29,1.4,31,31,0,0,1-7.48,1.69l-1,0,.07-1a6.14,6.14,0,0,1,.56-1.72c.55-1.24.72-1.84.32-2.16-.83-.66-3.36-.4-7.5.77l-.41.12-1.52.46c-5.59,1.74-11.76,3.45-14.29,1.69a2.55,2.55,0,0,1-1.12-2,.84.84,0,0,1,.8-.9.87.87,0,0,1,.91.8.87.87,0,0,0,.39.74c2.06,1.42,9.86-1,12.8-1.93.66-.2,1.2-.37,1.57-.47l.4-.11c3.68-1,7.32-1.82,9-.47,1.5,1.19.71,3,.18,4.19l0,.12a38.17,38.17,0,0,0,5.78-1.49,43.51,43.51,0,0,1,5.53-1.45l.19,0c2.17-.35,5.44-.88,7.43.15,1.74.9,2.13,2.89,2.48,4.65.26,1.33.51,2.6,1.24,3s1.85.11,3.47-.63a.86.86,0,0,1,1.14.42.87.87,0,0,1-.43,1.14A8.62,8.62,0,0,1,76.84,90.36Z" transform="translate(-19.97 -10.4)"/><path class="cls-1" d="M33.65,60.74a13,13,0,0,1-6.45-4.29c-6.1,13.14-8.83,23.23-6.27,24.66S31.16,74.35,39.48,61.5A14.75,14.75,0,0,1,33.65,60.74Z" transform="translate(-19.97 -10.4)"/><path class="cls-1" d="M60.11,10.88C56.69,9,50.78,13,46.92,20L31.77,47.12l.05,0q-2.33,4.4-4.24,8.51a19.7,19.7,0,0,0,6.58,3.53,20.7,20.7,0,0,0,6.11,1.1c1.27-2,2.56-4.1,3.84-6.29l.06,0L59.31,26.87C63.18,20,63.53,12.78,60.11,10.88Z" transform="translate(-19.97 -10.4)"/></svg>